<svg width="17" height="16" viewBox="0 0 17 16" fill="none" xmlns="http://www.w3.org/2000/svg">
<path d="M5.63203 12.8C4.75203 12.8 4.04003 13.52 4.04003 14.4C4.04003 15.28 4.75203 16 5.63203 16C6.51203 16 7.23203 15.28 7.23203 14.4C7.23203 13.52 6.51203 12.8 5.63203 12.8ZM13.632 12.8C12.752 12.8 12.04 13.52 12.04 14.4C12.04 15.28 12.752 16 13.632 16C14.512 16 15.232 15.28 15.232 14.4C15.232 13.52 14.512 12.8 13.632 12.8ZM5.76803 10.2L5.79203 10.104L6.51203 8.8H12.472C13.072 8.8 13.6 8.472 13.872 7.976L16.96 2.368L15.568 1.6H15.56L14.68 3.2L12.472 7.2H6.85603L6.75203 6.984L4.96003 3.2L4.20003 1.6L3.44803 0H0.832031V1.6H2.43203L5.31203 7.672L4.23203 9.632C4.10403 9.856 4.03203 10.12 4.03203 10.4C4.03203 11.28 4.75203 12 5.63203 12H15.232V10.4H5.96803C5.86403 10.4 5.76803 10.312 5.76803 10.2Z" fill="#00568D"/>
</svg>
