<svg width="12" height="12" viewBox="0 0 12 12" fill="none" xmlns="http://www.w3.org/2000/svg">
<path d="M5.994 0C2.682 0 0 2.61341 0 5.8335C0 9.05359 2.682 11.667 5.994 11.667C9.312 11.667 12 9.05359 12 5.8335C12 2.61341 9.312 0 5.994 0ZM6 10.5003C3.348 10.5003 1.2 8.4119 1.2 5.8335C1.2 3.25509 3.348 1.1667 6 1.1667C8.652 1.1667 10.8 3.25509 10.8 5.8335C10.8 8.4119 8.652 10.5003 6 10.5003Z" fill="#B0B0B0"/>
<path d="M6.29844 2.91699H5.39844V6.41712L8.54843 8.25469L8.99843 7.53716L6.29844 5.97961V2.91699Z" fill="#B0B0B0"/>
</svg>
