<svg width="16" height="16" viewBox="0 0 16 16" fill="none" xmlns="http://www.w3.org/2000/svg">
<path d="M7.92453 1.4415C10.0404 1.4415 10.2911 1.44963 11.1267 1.48806C11.8993 1.52369 12.3189 1.654 12.5982 1.76356C12.9681 1.90869 13.232 2.08206 13.5093 2.362C13.7866 2.64194 13.9584 2.90844 14.1021 3.28181C14.2107 3.56375 14.3397 3.98738 14.375 4.76731C14.4131 5.61094 14.4212 5.86394 14.4212 8C14.4212 10.1361 14.4131 10.3891 14.375 11.2327C14.3397 12.0127 14.2107 12.4362 14.1021 12.7182C13.9584 13.0916 13.7866 13.3581 13.5093 13.6381C13.232 13.918 12.9681 14.0914 12.5982 14.2364C12.3189 14.346 11.8993 14.4764 11.1267 14.5119C10.2912 14.5504 10.0406 14.5586 7.92453 14.5586C5.80843 14.5586 5.55782 14.5504 4.72234 14.5119C3.9497 14.4764 3.53013 14.346 3.25085 14.2364C2.881 14.0914 2.61695 13.918 2.33966 13.6381C2.06236 13.3581 1.89062 13.0916 1.74693 12.7182C1.6384 12.4362 1.50925 12.0127 1.47402 11.2327C1.43589 10.3891 1.42784 10.1361 1.42784 8C1.42784 5.86394 1.43589 5.61094 1.47402 4.76737C1.50925 3.98738 1.6384 3.56375 1.74693 3.28181C1.89062 2.90844 2.06236 2.64194 2.33966 2.362C2.61695 2.08206 2.881 1.90869 3.25085 1.76356C3.53013 1.654 3.9497 1.52369 4.72234 1.48806C5.55794 1.44963 5.80856 1.4415 7.92453 1.4415ZM7.92453 0C5.77234 0 5.50247 0.0091875 4.65727 0.048125C3.81374 0.087 3.23773 0.22225 2.73365 0.42C2.21249 0.624437 1.77057 0.898 1.33002 1.34275C0.889466 1.7875 0.618547 2.23362 0.416038 2.75969C0.220091 3.26856 0.0861792 3.85012 0.047671 4.70162C0.00910082 5.55487 0 5.82731 0 8C0 10.1727 0.00910082 10.4451 0.047671 11.2984C0.0861792 12.1499 0.220091 12.7314 0.416038 13.2403C0.618547 13.7664 0.889466 14.2126 1.33002 14.6573C1.77057 15.1021 2.21249 15.3756 2.73365 15.58C3.23773 15.7778 3.81374 15.913 4.65727 15.9519C5.50247 15.9908 5.77234 16 7.92453 16C10.0767 16 10.3466 15.9908 11.1918 15.9519C12.0353 15.913 12.6113 15.7778 13.1154 15.58C13.6365 15.3756 14.0784 15.1021 14.519 14.6573C14.9595 14.2126 15.2305 13.7664 15.433 13.2403C15.6289 12.7314 15.7629 12.1499 15.8014 11.2984C15.84 10.4451 15.8491 10.1727 15.8491 8C15.8491 5.82731 15.84 5.55487 15.8014 4.70162C15.7629 3.85012 15.6289 3.26856 15.433 2.75969C15.2305 2.23362 14.9595 1.7875 14.519 1.34275C14.0784 0.898 13.6365 0.624437 13.1154 0.42C12.6113 0.22225 12.0353 0.087 11.1918 0.048125C10.3466 0.0091875 10.0767 0 7.92453 0ZM7.92453 3.89188C5.67706 3.89188 3.85516 5.73119 3.85516 8C3.85516 10.2689 5.67706 12.1081 7.92453 12.1081C10.1719 12.1081 11.9939 10.2689 11.9939 8C11.9939 5.73119 10.1719 3.89188 7.92453 3.89188ZM7.92453 10.6667C6.46567 10.6667 5.283 9.47275 5.283 8C5.283 6.52725 6.46567 5.33331 7.92453 5.33331C9.38338 5.33331 10.5661 6.52725 10.5661 8C10.5661 9.47275 9.38338 10.6667 7.92453 10.6667ZM13.1056 3.72956C13.1056 4.25981 12.6799 4.68962 12.1547 4.68962C11.6294 4.68962 11.2037 4.25981 11.2037 3.72956C11.2037 3.19938 11.6294 2.76962 12.1547 2.76962C12.6799 2.76962 13.1056 3.19938 13.1056 3.72956Z" fill="#00568D"/>
</svg>
