<svg width="25" height="24" viewBox="0 0 25 24" fill="none" xmlns="http://www.w3.org/2000/svg">
<path d="M12.3868 2.16225C15.5607 2.16225 15.9366 2.17444 17.19 2.23209C18.3489 2.28553 18.9784 2.481 19.3973 2.64534C19.9521 2.86303 20.3481 3.12309 20.764 3.543C21.18 3.96291 21.4376 4.36266 21.6532 4.92272C21.816 5.34562 22.0096 5.98106 22.0625 7.15097C22.1197 8.41641 22.1317 8.79591 22.1317 12C22.1317 15.2042 22.1197 15.5837 22.0625 16.849C22.0096 18.019 21.816 18.6544 21.6532 19.0773C21.4376 19.6373 21.18 20.0372 20.764 20.4571C20.3481 20.877 19.9521 21.1371 19.3973 21.3547C18.9784 21.519 18.3489 21.7146 17.19 21.7679C15.9368 21.8257 15.5608 21.8378 12.3868 21.8378C9.21265 21.8378 8.83673 21.8257 7.58351 21.7679C6.42454 21.7146 5.79519 21.519 5.37628 21.3547C4.8215 21.1371 4.42543 20.877 4.00948 20.4571C3.59354 20.0372 3.33593 19.6373 3.12039 19.0773C2.95759 18.6544 2.76388 18.019 2.71104 16.849C2.65383 15.5837 2.64176 15.2042 2.64176 12C2.64176 8.79591 2.65383 8.41641 2.71104 7.15106C2.76388 5.98106 2.95759 5.34562 3.12039 4.92272C3.33593 4.36266 3.59354 3.96291 4.00948 3.543C4.42543 3.12309 4.8215 2.86303 5.37628 2.64534C5.79519 2.481 6.42454 2.28553 7.58351 2.23209C8.83691 2.17444 9.21283 2.16225 12.3868 2.16225ZM12.3868 0C9.15851 0 8.75371 0.0137812 7.48591 0.0721875C6.22061 0.1305 5.35659 0.333375 4.60048 0.63C3.81874 0.936656 3.15586 1.347 2.49503 2.01412C1.8342 2.68125 1.42782 3.35044 1.12406 4.13953C0.830137 4.90284 0.629269 5.77519 0.571506 7.05244C0.513651 8.33231 0.5 8.74097 0.5 12C0.5 15.259 0.513651 15.6677 0.571506 16.9476C0.629269 18.2249 0.830137 19.0972 1.12406 19.8605C1.42782 20.6496 1.8342 21.3188 2.49503 21.986C3.15586 22.6531 3.81874 23.0633 4.60048 23.37C5.35659 23.6667 6.22061 23.8695 7.48591 23.9278C8.75371 23.9862 9.15851 24 12.3868 24C15.6151 24 16.0199 23.9862 17.2877 23.9278C18.5529 23.8695 19.417 23.6667 20.1731 23.37C20.9548 23.0633 21.6176 22.6531 22.2785 21.986C22.9393 21.3188 23.3458 20.6497 23.6495 19.8605C23.9434 19.0972 24.1443 18.2249 24.2021 16.9476C24.2599 15.6677 24.2736 15.259 24.2736 12C24.2736 8.74097 24.2599 8.33231 24.2021 7.05244C24.1443 5.77519 23.9434 4.90284 23.6495 4.13953C23.3458 3.35044 22.9393 2.68125 22.2785 2.01412C21.6176 1.347 20.9548 0.936656 20.1731 0.63C19.417 0.333375 18.5529 0.1305 17.2877 0.0721875C16.0199 0.0137812 15.6151 0 12.3868 0ZM12.3868 5.83781C9.01559 5.83781 6.28274 8.59678 6.28274 12C6.28274 15.4033 9.01559 18.1622 12.3868 18.1622C15.7579 18.1622 18.4908 15.4033 18.4908 12C18.4908 8.59678 15.7579 5.83781 12.3868 5.83781ZM12.3868 16C10.1985 16 8.4245 14.2091 8.4245 12C8.4245 9.79088 10.1985 7.99997 12.3868 7.99997C14.5751 7.99997 16.3491 9.79088 16.3491 12C16.3491 14.2091 14.5751 16 12.3868 16ZM20.1583 5.59434C20.1583 6.38972 19.5198 7.03444 18.732 7.03444C17.9441 7.03444 17.3055 6.38972 17.3055 5.59434C17.3055 4.79906 17.9441 4.15444 18.732 4.15444C19.5198 4.15444 20.1583 4.79906 20.1583 5.59434Z" fill="white"/>
</svg>
