<svg width="17" height="16" viewBox="0 0 17 16" fill="none" xmlns="http://www.w3.org/2000/svg">
<path d="M11.9351 10.0629H11.2124L10.9563 9.81589C11.8528 8.77301 12.3925 7.4191 12.3925 5.94626C12.3925 2.66209 9.73042 0 6.44626 0C3.16209 0 0.5 2.66209 0.5 5.94626C0.5 9.23042 3.16209 11.8925 6.44626 11.8925C7.9191 11.8925 9.27301 11.3528 10.3159 10.4563L10.5629 10.7124V11.4351L15.1369 16L16.5 14.6369L11.9351 10.0629ZM6.44626 10.0629C4.16838 10.0629 2.32962 8.22413 2.32962 5.94626C2.32962 3.66838 4.16838 1.82962 6.44626 1.82962C8.72413 1.82962 10.5629 3.66838 10.5629 5.94626C10.5629 8.22413 8.72413 10.0629 6.44626 10.0629Z" fill="#00568D"/>
</svg>
