<svg width="15" height="12" viewBox="0 0 15 12" fill="none" xmlns="http://www.w3.org/2000/svg">
<path d="M4.608 7.336C5.248 7.336 5.744 7.544 6.096 7.96C6.48 8.344 6.672 8.856 6.672 9.496C6.672 10.2 6.448 10.744 6 11.128C5.584 11.48 4.976 11.656 4.176 11.656C3.184 11.656 2.4 11.272 1.824 10.504C1.248 9.736 0.96 8.648 0.96 7.24C0.96 5.896 1.248 4.664 1.824 3.544C2.432 2.392 3.328 1.24 4.512 0.0879974C4.544 0.0559978 4.592 0.0399981 4.656 0.0399981C4.752 0.0399981 4.832 0.0879984 4.896 0.183999C4.96 0.279998 4.96 0.359998 4.896 0.423999C3.328 2.024 2.544 3.912 2.544 6.088C2.544 6.984 2.704 7.64 3.024 8.056C3.312 7.576 3.84 7.336 4.608 7.336ZM12.096 7.336C12.736 7.336 13.232 7.544 13.584 7.96C13.968 8.344 14.16 8.856 14.16 9.496C14.16 10.2 13.936 10.744 13.488 11.128C13.072 11.48 12.464 11.656 11.664 11.656C10.672 11.656 9.888 11.272 9.312 10.504C8.736 9.736 8.448 8.648 8.448 7.24C8.448 5.896 8.736 4.664 9.312 3.544C9.92 2.392 10.816 1.24 12 0.0879974C12.032 0.0559978 12.08 0.0399981 12.144 0.0399981C12.24 0.0399981 12.32 0.0879984 12.384 0.183999C12.448 0.279998 12.448 0.359998 12.384 0.423999C10.816 2.024 10.032 3.912 10.032 6.088C10.032 6.984 10.192 7.64 10.512 8.056C10.8 7.576 11.328 7.336 12.096 7.336Z" fill="#00568D"/>
</svg>
